<?xml version="1.0" encoding="utf-8"?>
<!-- Generator: Adobe Illustrator 25.2.1, SVG Export Plug-In . SVG Version: 6.00 Build 0)  -->
<svg version="1.1" id="Capa_1" xmlns="http://www.w3.org/2000/svg" xmlns:xlink="http://www.w3.org/1999/xlink" x="0px" y="0px"
	 viewBox="0 0 512 336.8" style="enable-background:new 0 0 512 336.8;" xml:space="preserve">
<style type="text/css">
	.st0{fill-rule:evenodd;clip-rule:evenodd;fill:#071D49;}
</style>
<path id="Hanashi" class="st0" d="M103.2,274.3c2.2,2.8,5.9,4.2,11,4.4c0.8,0,1.2,0.4,1.3,1.1c0.1,0.7-0.4,1.1-1.3,1.1H73.7
	c-0.6,0-0.9-0.2-1.1-0.5c-0.2-0.4-0.1-0.8,0.1-1.1c0.2-0.4,0.6-0.6,1-0.6c8.5-0.1,12.7-4.3,12.7-12.7v-59.1c0-2.6-0.4-4.6-1.2-6
	c-0.8-1.4-1.5-2.3-2.2-2.7s-1.7-0.6-3-0.7l-1.8-0.2H36.1c-0.2,0-0.7,0-1.4,0.1c-0.7,0.1-1.4,0.1-2,0.3c-0.7,0.2-1.4,0.5-2,1
	c-0.8,0.6-1.4,1.4-1.8,2.3v64.9c0,8.4,4.2,12.6,12.7,12.7c0.8,0,1.2,0.4,1.3,1.1c0.1,0.7-0.4,1.1-1.3,1.1H1.3
	c-0.6,0-0.9-0.2-1.1-0.5c-0.2-0.4-0.1-0.8,0.1-1.1c0.2-0.4,0.6-0.6,1-0.6c5.1-0.1,8.8-1.6,11-4.4c2.2-2.8,3.3-5.6,3.3-8.4V127.9
	c0-2.8-1.1-5.6-3.3-8.4c-2.2-2.8-5.9-4.2-11-4.4c-0.4,0-0.8-0.2-1-0.5c-0.2-0.3-0.3-0.7-0.1-1.1c0.2-0.4,0.5-0.6,1.1-0.6h40.3
	c0.9,0,1.3,0.4,1.3,1.1c-0.1,0.7-0.5,1.1-1.3,1.1c-8.5,0.1-12.7,4.4-12.7,12.7v59.2c1.2,2.8,3.8,4.2,7.7,4.2h42c0.6,0,1.1,0,1.8-0.1
	c0.7-0.1,1.4-0.3,2-0.7c0.7-0.4,1.4-0.9,2-1.5c0.6-0.6,1.1-1.6,1.5-2.8c0.4-1.5,0.6-3,0.6-4.6v-53.7c0-1.7-0.3-3.4-0.8-5
	c-0.5-1.7-1.8-3.4-4-5.1c-2.2-1.7-5-2.6-8.6-2.6c-0.4,0-0.8-0.2-1-0.5c-0.2-0.3-0.3-0.7-0.1-1.1c0.2-0.4,0.5-0.6,1.1-0.6h41.2
	c0.9,0,1.3,0.4,1.3,1.1c-0.1,0.7-0.5,1.1-1.3,1.1c-5.1,0.1-8.8,1.6-11,4.4c-2.2,2.8-3.3,5.6-3.3,8.4v138.1
	C99.8,268.7,101,271.5,103.2,274.3z M178.9,280.8c0.7,0,1.1-0.2,1.3-0.6c0.2-0.4,0.1-0.8-0.2-1.2c-0.2-0.4-0.6-0.6-1.1-0.6
	c-2.5,0-4.4-0.7-5.9-2.2c-1.8-1.8-2.7-5.6-2.7-11.5v-42.3c0-10.5-2.5-18.5-7.6-23.9c-5.1-5.5-12.4-7.8-21.8-7
	c-5,0.4-9.5,1.8-13.3,4.2c-3.8,2.3-6.6,5.1-8.2,8.3c-1.6,3.1-2.7,6.5-3.3,10c-0.6,3.5-0.3,6.5,0.9,9c1,2.9,2.7,4.8,5.1,5.6
	c2.4,0.8,4.6,0.6,6.5-0.7c2-1.3,2.9-3.2,2.9-5.6c0-1.7-0.3-3-0.8-3.8c-0.6-1-1.4-1.9-2.3-2.7c-0.8-0.7-1.5-1.6-2.1-2.5
	c-1.8-3.2-1.3-6.9,1.5-11.1c2.8-4.2,7.2-6.1,13.4-5.8c2.8,0.1,5.2,0.9,7.3,2.3c2.1,1.4,3.6,2.9,4.5,4.5c0.9,1.6,1.7,3.9,2.3,6.7
	c0.6,2.8,0.9,5,0.9,6.5s0,3.7-0.1,6.4c-0.1,2.8-0.2,4.2-0.2,4.4c-1.2,1.6-4.4,3.1-9.5,4.5c-5.1,1.5-10.2,2.8-15.4,4.2
	c-5.2,1.3-10,4-14.3,7.9c-4.4,3.9-6.7,9-7,15.2c-0.1,1.9,0.1,3.8,0.6,5.6c0.5,2.1,1.5,4.3,2.8,6.8c1.4,2.5,3.7,4.6,7,6.4
	c3.3,1.8,7.3,2.8,12,3.2c9.5,0.6,17.4-1.3,23.8-5.7v5.7L178.9,280.8L178.9,280.8z M149.7,273.5c-3.5,1.3-7.2,1.9-10.9,1.7
	c-3.8-0.2-7.2-1.6-10.2-4.4c-3-2.8-4.5-6.7-4.5-11.9c0-4.8,1.4-8.9,4.3-12.2c2.8-3.3,6-5.7,9.4-6.9c3.4-1.3,7-2.6,10.9-3.8
	c3.8-1.3,6.3-2.4,7.4-3.4v36.1C155.2,270.6,153.1,272.2,149.7,273.5L149.7,273.5z M189.8,268.6v2.3c-0.4,5.1-2.9,7.7-7.4,7.7
	c-0.4,0-0.8,0.2-1.1,0.6c-0.3,0.4-0.3,0.8-0.2,1.1c0.2,0.3,0.6,0.5,1.3,0.5h29c0.9,0,1.3-0.4,1.3-1.1s-0.5-1.1-1.3-1.1
	c-2.5,0-4.3-0.8-5.6-2.3c-1.3-1.5-2-3.3-1.9-5.3v-0.2l0.2-49.7c0-3.8,0.6-7.5,1.8-11c1.2-3.6,3.4-6.7,6.6-9.4
	c3.2-2.7,7-3.9,11.5-3.7c1,0.1,2,0.4,2.9,0.7c1.1,0.3,2.4,1,3.9,2c1.6,1,2.8,2.6,3.8,4.9c1,2.2,1.5,5,1.5,8.2v55.7
	c-0.2,6.7-2.8,10-7.7,10c-0.8,0-1.2,0.4-1.3,1.1c-0.1,0.7,0.4,1.1,1.3,1.1h29.5c0.9,0,1.3-0.4,1.3-1.1c-0.1-0.7-0.5-1.1-1.3-1.1
	c-4.9,0-7.5-3.3-7.7-10v-50.5c0-9-2.1-15.7-6.4-20c-4.2-4.3-9.2-6.7-14.9-7.3c-7-0.7-12.6,0.4-16.7,3.3s-6.8,5.8-8,8.8
	c0-1.9,0.1-3.7,0.2-5.3c0.1-1.6,0.2-2.8,0.3-3.7c0.1-0.8,0.2-1.3,0.2-1.4c0.1-0.6-0.1-0.9-0.6-1c-0.5-0.1-1,0.1-1.4,0.5
	c-2.2,1.9-5.9,3.2-10.9,4c-2.2,0.3-5,0.7-8.4,1h-2.7c-0.7,0-1.1,0.2-1.3,0.6c-0.2,0.4-0.1,0.8,0.2,1.1c0.3,0.3,0.7,0.5,1.1,0.5
	c1.8,0,3.3,0.3,4.5,0.8c1.2,0.5,2.1,1,2.8,1.6c0.6,0.6,1.1,1.4,1.3,2.4c0.2,0.8,0.4,1.7,0.4,2.6c0,0.7,0,1.6-0.1,2.8
	c-0.1,1.2-0.1,1.9-0.1,2.3L189.8,268.6L189.8,268.6z M327.2,280.8c0.7,0,1.1-0.2,1.3-0.6c0.2-0.4,0.1-0.8-0.2-1.2
	c-0.2-0.4-0.6-0.6-1.1-0.6c-2.5,0-4.4-0.7-5.9-2.2c-1.8-1.8-2.7-5.6-2.7-11.5v-42.3c0-10.5-2.5-18.5-7.6-23.9
	c-5.1-5.5-12.4-7.8-21.8-7c-5,0.4-9.5,1.8-13.3,4.2c-3.8,2.3-6.6,5.1-8.2,8.3c-1.6,3.1-2.7,6.5-3.3,10c-0.6,3.5-0.3,6.5,0.9,9
	c1,2.9,2.7,4.8,5.1,5.6c2.4,0.8,4.6,0.6,6.5-0.7c2-1.3,2.9-3.2,2.9-5.6c0-1.7-0.3-3-0.8-3.8c-0.6-1-1.4-1.9-2.3-2.7
	c-0.8-0.7-1.5-1.6-2.1-2.5c-1.8-3.2-1.3-6.9,1.5-11.1c2.8-4.2,7.3-6.1,13.4-5.8c2.8,0.1,5.2,0.9,7.3,2.3c2.1,1.4,3.6,2.9,4.5,4.5
	c0.9,1.6,1.7,3.9,2.3,6.7c0.6,2.8,0.9,5,0.9,6.5c0.1,1.5,0,3.7-0.1,6.4c-0.1,2.8-0.2,4.2-0.2,4.4c-1.2,1.6-4.4,3.1-9.5,4.5
	c-5.1,1.5-10.2,2.8-15.4,4.2c-5.2,1.3-10,4-14.3,7.9c-4.4,3.9-6.7,9-7,15.2c-0.1,1.9,0.1,3.8,0.6,5.6c0.5,2.1,1.5,4.3,2.8,6.8
	s3.7,4.6,7,6.4c3.3,1.8,7.3,2.8,12,3.2c9.5,0.6,17.4-1.3,23.8-5.7v5.7L327.2,280.8L327.2,280.8z M297.9,273.5
	c-3.5,1.3-7.2,1.9-10.9,1.7c-3.8-0.2-7.2-1.6-10.2-4.4c-3-2.8-4.5-6.7-4.5-11.9c0-4.8,1.4-8.9,4.3-12.2s6-5.7,9.4-6.9
	c3.4-1.3,7-2.6,10.9-3.8c3.8-1.3,6.3-2.4,7.4-3.4v36.1C303.5,270.6,301.4,272.2,297.9,273.5L297.9,273.5z M345,200.4
	c2.3-2.7,6.5-4,12.4-3.8c2.6,0,5.5,0.9,8.8,2.8c3.3,1.9,5,4.8,5.1,8.7l-0.3,1.7c-0.1,1.2-0.4,2.4-0.7,3.5c-0.3,1.3-0.7,2.3-1.2,2.8
	c-0.6,0.7-0.4,1.4,0.3,2.2c1.2,1.1,2.6,0.7,4-1.2c0.4-0.6,1.5-2.5,3.1-5.7c1.6-3.2,2.7-5.1,3.1-5.7c0.9-1.3,2.6-2.8,5-4.4
	c1.1-0.7,1.5-1.5,1.3-2.3c-0.3-0.9-1-1.1-2.3-0.7c-2.3,0.9-5.9,0.3-10.5-1.8c-0.2-0.1-1-0.5-2.3-1.1c-0.9-0.4-1.9-0.8-2.8-1.2
	c-0.6-0.2-1.5-0.5-2.8-1c-1.1-0.4-2.2-0.8-3.3-1.1c-0.9-0.2-2-0.4-3.3-0.7c-1.3-0.2-2.6-0.3-3.8-0.3c-7.9-0.2-14.3,1.4-19.2,4.9
	s-7.4,8.1-7.6,13.9c-0.1,4.6,1,8.6,3.3,12.2c2.3,3.5,5.3,6.4,9,8.5c3.6,2.1,7.5,4.1,11.7,6.2c4.2,2.1,8.1,3.9,11.6,5.6
	c3.6,1.7,6.6,3.9,9,6.5c2.4,2.7,3.6,5.7,3.6,9.2c0,5.9-2.5,10.7-7.4,14.2c-5,3.6-11.2,4.6-18.7,3c-4.1-0.8-7.6-2.2-10.5-4.3
	c-2.8-2.1-4.7-4.2-5.7-6.5c-0.9-2.3-1.4-4.5-1.4-6.5c0-2.1,0.5-3.7,1.5-4.8c1.1-1.1,2.3-1.3,3.5-0.7c2.6,1.2,4.9,0.8,7-1.3
	c2.1-2.1,2.3-4.4,0.5-6.7c-1.8-2-4-2.9-6.8-2.7c-2.7,0.2-5.2,1.3-7.1,3.2c-2.6,2.3-4.2,5.3-4.8,8.9c-0.6,3.6-0.2,7.3,1.1,10.6
	c1.3,3.5,4,6.8,7.9,9.9c3.9,3.1,8.6,5.2,14.2,6.3c10.4,2.1,19.7,0.5,28.1-4.9c8.4-5.4,12.3-12.5,11.9-21.4c-0.2-5-2-9.8-5.1-13.7
	c-3.1-4-7-7.2-11.5-9.6c-4.5-2.4-9-4.6-13.5-6.7c-4.5-2.1-8.4-4.4-11.7-6.9c-3.3-2.6-5.2-5.4-5.6-8.4
	C341.7,206.1,342.7,203.1,345,200.4L345,200.4z M461.6,199.8c-6.8-7.8-17.3-10.5-31.6-8.2c-4.7,0.8-8.7,2.4-12,4.9
	c-3.3,2.5-5.4,4.6-6.4,6.3v-73.3c0-3.8,0.1-7.3,0.2-10.5c0.2-3.2,0.3-5.7,0.5-7.4c0.2-1.7,0.3-2.6,0.3-2.7c0.1-0.3,0.1-0.6-0.2-0.8
	c-0.3-0.2-0.6-0.2-0.9-0.2c-0.4,0.1-0.8,0.3-1.1,0.6c-1.9,1.9-5.5,3.2-10.7,4c-2.2,0.3-6.2,0.7-12,1H385c-0.7,0-1.1,0.2-1.3,0.6
	c-0.2,0.4-0.1,0.8,0.2,1.1c0.3,0.3,0.7,0.5,1.1,0.5c3.5,0,6.2,0.9,8.3,2.6c2.1,1.7,3.3,3.3,3.7,4.9c0.4,1.5,0.6,3,0.6,4.6v143.1
	c-0.4,5.1-3,7.7-7.5,7.7c-0.4,0-0.8,0.2-1,0.6c-0.2,0.3-0.3,0.7-0.1,1.1c0.2,0.3,0.5,0.5,1.1,0.5h29.1c0.9,0,1.3-0.4,1.3-1.1
	c-0.1-0.7-0.5-1.1-1.3-1.1c-4.4,0-6.9-2.6-7.5-7.7v-57.1c0.2-3.2,2.1-6.5,5.8-9.9c3.6-3.3,7.3-5.2,11.1-5.7
	c9.5-1.1,16.4,1.7,20.7,8.4c4.4,6.7,6.5,15.4,6.5,26.3v39.7c-0.9,4-3.3,6-7.2,6c-0.8,0-1.2,0.4-1.3,1.1c-0.1,0.7,0.4,1.1,1.3,1.1
	H478c0.9,0,1.3-0.4,1.3-1.1c-0.1-0.7-0.5-1.1-1.3-1.1c-3.9,0-6.3-2-7.2-6v-39C471.5,218.9,468.4,207.6,461.6,199.8L461.6,199.8z
	 M498.8,178.5c1.6-1.5,2.5-3.7,2.5-5.9c0-4.7-3.8-8.5-8.5-8.5c-2.2,0-4.2,0.8-5.9,2.5c-1.6,1.6-2.5,3.8-2.5,6c0,2.2,0.9,4.4,2.5,5.9
	c1.7,1.6,3.6,2.4,5.9,2.4C495,180.9,497.2,180.1,498.8,178.5L498.8,178.5z M504.2,192.3c0-0.4-0.3-0.7-0.8-0.8
	c-0.5-0.1-1,0.1-1.4,0.5c-2.2,1.9-5.9,3.2-10.9,4c-2.2,0.3-5.1,0.7-8.7,1h-2.7c-0.9,0-1.3,0.4-1.3,1.1c0.1,0.7,0.5,1.1,1.3,1.1
	c1.2,0,2.3,0.1,3.4,0.4c0.9,0.2,1.7,0.5,2.5,1c0.7,0.4,1.2,1,1.7,1.7c0.4,0.6,0.8,1.2,1.1,1.8c0.3,0.7,0.4,1.4,0.5,2.2
	c0.1,0.9,0.2,1.6,0.2,2v60.3c-0.2,6.6-2.8,9.9-7.7,9.9c-0.8,0-1.2,0.4-1.3,1.2c-0.1,0.8,0.4,1.2,1.3,1.2h29.3c0.9,0,1.3-0.4,1.3-1.2
	c-0.1-0.8-0.5-1.2-1.3-1.2c-4.9,0-7.5-3.3-7.7-9.9v-55.1C503,204.1,503.4,197,504.2,192.3L504.2,192.3L504.2,192.3z M149.7,32.1
	c4.9-1.8,10-3.3,15.1-4.6c7.8-1.9,16.9-3.3,26.3-3.3c12.4,0,24,2.4,34.3,7.2c8.3,3.8,15.9,9.2,22.7,16.1
	c-21-26.1-50.5-32.2-73.4-32.2c-4.8,0-9.7,0.3-14.5,0.8c-12.2,1.3-20.3,3.8-20.3,3.8l6.2,13.6C147.3,33,148.5,32.5,149.7,32.1z
	 M174.8,11.3c14.1,0,27.2,2.2,39,6.6c11.5,4.3,21.7,10.8,30.3,19.2C219.4,4.4,182.7,0,164.5,0c-6.8,0-11,0.6-11,0.6l5.1,11.7
	C164,11.6,169.4,11.3,174.8,11.3z M147.2,85.7c-8.7-1.5-23.4-5.1-32.3-13.1l-0.7-0.7l0.8-0.5c5-3,12.6-8.8,11.9-11.8
	c-0.3-1.5-3.9-1.4-7.9-1.3c-5.6,0.2-13.2,0.4-19.4-3.2c-8.9-5.1-21.7-16.5-26.4-20.9v0l2.7,0.5c25,4.7,44.6,9.5,55.6,12.4v0
	L147.2,85.7z M151.6,86.4c0.1,0.1,0.2,0.2,0.1,0.3L151.6,86.4z M152.3,98.3c-4.6-3.3-10.6,3.8-15.5,9.4c-1,1.2-2,2.4-2.8,3.2
	c-1.2-2.3-2.4-10.6-2.4-17.3c0-1.8-0.9-2.6-1.5-3c-2.6-1.7-7.2,0.4-15.8,4.5c-5.6,2.6-11.9,5.6-16.9,6.7c-1.9,0.4-2.8,0.4-3.1,0.3
	c0.2-1.7,4-6.8,6.1-9.6c1.4-1.8,2.7-3.6,3.8-5.1c1.2-1.8,0.7-3.2,0.3-3.8c-1.8-3-8.7-2.6-25-0.8c-8.5,1-18.1,2-22.2,1.2
	c1.5-1.6,5.7-4,11.2-6.7c5.4-2.7,16.8-11.8,16.8-11.8h0c-30,12.4-51.4-0.4-59.1-6.2l38.2-9.5C33.4,53.4,8.8,32.9,0,24.4
	c19.5,1.7,38.2,4.1,55.1,6.9l2.7,0.4c10,8.8,39.4,33,59.1,31.2l2.2-0.2l-13.5,12.3c3.6,2.8,25.1,15.8,42.5,12.9l0.1,0.3l0,0.1
	L152.3,98.3z M254.1,60.5v108.6c0,0-12.8-13.2-38.1-13.2c-9.3,0-20.4,1.8-33.1,6.7l-21.9-53.4l-2.2-5.4l-7-17l0-0.1l-0.1-0.3
	l-0.4-1.1l-15.1-36.9l-1.8-4.5l-0.3-0.7c0,0,3.8-2.2,10.2-4.9c0.6-0.2,1.2-0.5,1.8-0.8c0.6-0.2,1.2-0.5,1.8-0.7
	c5.9-2.3,11.9-4.2,18.1-5.7c7.7-1.8,16.3-3.1,25.2-3.1c19.7,0,41.3,6.3,58.8,27c0.9,1,1.8,2.1,2.6,3.2C253,59,253.6,59.7,254.1,60.5
	L254.1,60.5z M362.4,32.1c-4.9-1.8-10-3.3-15.1-4.6c-7.8-1.9-16.9-3.3-26.3-3.3c-12.4,0-24,2.4-34.3,7.2
	c-8.3,3.8-15.9,9.2-22.7,16.1c21-26.1,50.5-32.2,73.4-32.2c4.8,0,9.7,0.3,14.5,0.8c12.2,1.3,20.3,3.8,20.3,3.8l-6.2,13.6
	C364.7,33,363.6,32.5,362.4,32.1L362.4,32.1z M337.3,11.3c-14.1,0-27.2,2.2-39,6.6c-11.5,4.3-21.7,10.8-30.3,19.2
	C292.6,4.4,329.4,0,347.5,0c6.8,0,11,0.6,11,0.6l-5.1,11.7C348.1,11.6,342.7,11.3,337.3,11.3z M378,43.4l-0.3,0.7l-1.8,4.5
	l-15.1,36.9l-0.4,1.1l-0.1,0.3l0,0.1l-7,17l-2.2,5.4l-21.9,53.4c-12.7-4.9-23.8-6.7-33.1-6.7c-25.4,0-38.1,13.2-38.1,13.2V60.5
	c0.5-0.7,1.1-1.4,1.6-2.2c0.9-1.1,1.7-2.2,2.6-3.2c17.5-20.7,39-27,58.8-27c9,0,17.6,1.3,25.2,3.1c6.1,1.5,12.2,3.4,18.1,5.7
	c0.6,0.2,1.2,0.5,1.8,0.7c0.6,0.3,1.2,0.5,1.8,0.8C374.3,41.2,378,43.4,378,43.4z M438.8,34.3L438.8,34.3
	c-4.7,4.4-17.5,15.8-26.4,20.9c-6.2,3.5-13.8,3.3-19.4,3.2c-4.1-0.1-7.6-0.2-7.9,1.3c-0.7,3,7,8.8,11.9,11.8l0.8,0.5l-0.7,0.7
	c-8.9,8-23.6,11.5-32.3,13.1L379.5,50l1.1-2.7c11-2.9,30.6-7.8,55.6-12.4C436.2,34.8,438.8,34.3,438.8,34.3z M360.4,86.4l-0.1,0.3
	C360.2,86.6,360.3,86.5,360.4,86.4z M426.7,65.5L426.7,65.5c0,0,11.4,9,16.8,11.8c5.4,2.7,9.7,5.1,11.2,6.7
	c-4.1,0.8-13.7-0.2-22.2-1.2c-16.3-1.8-23.2-2.3-25,0.8c-0.4,0.6-0.9,2,0.3,3.8c1.1,1.6,2.4,3.3,3.8,5.1c2.1,2.8,6,7.9,6.1,9.6
	c-0.4,0.1-1.2,0.1-3.1-0.3c-5-1.1-11.3-4.1-16.9-6.7c-8.6-4.1-13.2-6.1-15.8-4.5c-0.6,0.4-1.5,1.2-1.5,3c0,6.6-1.2,14.9-2.4,17.3
	c-0.8-0.8-1.8-2-2.8-3.2c-4.8-5.7-10.9-12.7-15.5-9.4l4.1-10l0.1-0.2l0.1-0.3c17.5,3,38.9-10.1,42.5-12.9L393,62.6l2.2,0.2
	c19.7,1.9,49.1-22.4,59.1-31.2l2.7-0.4c16.9-2.7,35.5-5.2,55.1-6.9c-8.8,8.5-33.4,29-64.3,25.4l38.2,9.5
	C478.2,65.1,456.7,77.9,426.7,65.5L426.7,65.5z M126.4,336.8l-0.1-32.4l-16,27h-2.9l-16-26.8v32.2h-6.1v-44.4h5.2l18.5,31.2
	l18.3-31.2h5.2l0.1,44.4H126.4z M209.7,331.3v5.5h-32.2v-44.4h31.3v5.5h-25v13.6h22.3v5.4h-22.3v14.3L209.7,331.3L209.7,331.3z
	 M251.7,292.3h18.7c4.7,0,8.9,0.9,12.5,2.8c3.6,1.9,6.5,4.5,8.5,7.8c2,3.4,3,7.2,3,11.6c0,4.4-1,8.2-3,11.6c-2,3.4-5,6.1-8.5,7.8
	c-3.6,1.9-7.8,2.8-12.5,2.8h-18.7V292.3z M270.1,331.3c3.6,0,6.8-0.7,9.5-2.1c2.6-1.3,4.8-3.3,6.3-5.9c1.5-2.5,2.2-5.4,2.2-8.7
	c0-3.3-0.7-6.2-2.2-8.7c-1.5-2.5-3.7-4.6-6.3-5.9c-2.7-1.4-5.9-2.1-9.5-2.1h-12v33.4H270.1z M335.8,292.3h6.3v44.4h-6.3V292.3z
	 M415.5,325.7h-23.6l-4.9,11.1h-6.5l20.1-44.4h6.3l20.2,44.4h-6.7L415.5,325.7z M413.3,320.6l-9.6-21.8l-9.6,21.8L413.3,320.6
	L413.3,320.6z"/>
</svg>
