<svg id="logo.svg" xmlns="http://www.w3.org/2000/svg" width="1180.97" height="138.906" viewBox="0 0 1180.97 138.906">
  <defs>
    <style>
      .cls-1 {
        fill: #b7bbbe;
      }

      .cls-1, .cls-2 {
        fill-rule: evenodd;
      }
    </style>
  </defs>
  <path id="シェイプ_1" data-name="シェイプ 1" class="cls-1" d="M193,50H1V4L192.666,4.2Zm0,92H1V96H193v46Z" transform="translate(-1 -3.094)"/>
  <path id="シェイプ_1-2" data-name="シェイプ 1" class="cls-2" d="M386.1,20.344c0-5.188.731-6.512,5.589-6.512H409.87c13.648,0,22.245,2.815,27.753,7.236,4.056,3.387,7.23,10.657,7.23,16.922,0,9.015-3.174,15.617-8.522,20.133-7.131,5.656-17.676,8.188-31.138,8.188H386.1V20.344Zm-14.333,99.311c0,13.357-1.184,14.115-15.572,14.115v5.789h62.828c20.027,0,31.2-4.73,38.877-11.825,7.435-7.11,10.614-16.436,10.614-25.869,0-10.161-5.591-17.564-12.172-22.921-8.585-6.246-19.374-9.308-32.1-9.635V69.028c12.225-1.8,20.041-5.69,25.976-10.694,7.214-6.052,9.555-14.409,9.555-21.529,0-9.565-4.89-16.99-12.3-21.985-10.161-6.608-22-8.151-39.723-8.151H356.2v5.4c14.388,0,15.572.962,15.572,14.4v93.188ZM386.1,73.333H409.73c15.744,0,26.6,2.638,32.99,7.613,7.05,5.181,10.871,12.459,10.871,20.655,0,9.7-3.018,16.552-7.683,21.386-6.276,6.486-15.317,9.326-28.825,9.326H393.062c-5.976,0-6.96-1.3-6.96-9.095V73.333Zm-58.531-36.3c-3.989-19.429-8.3-25.868-30.967-25.868-9.587,0-17.428,2.663-22.816,7.067a17.209,17.209,0,0,0-6.647,14.276A22.538,22.538,0,0,0,273.6,47.445c4.956,4.837,12.251,8.78,24.305,14.726,15.037,7.679,26.47,11.939,34.656,21.1a34.436,34.436,0,0,1,8.123,22.092c0,9.708-3.5,18.529-10.762,24.9-8.115,7.165-20.782,11.7-37.939,11.7a110.042,110.042,0,0,1-35.879-6.354,174.049,174.049,0,0,0-6.336-27.721l6.711-1.623c6.19,23.046,16.917,28.569,37.228,28.569,8.826,0,17.134-2.346,23.043-6.917a23.171,23.171,0,0,0,9.894-19.463,22.888,22.888,0,0,0-6.126-16.519C314.267,84.837,303.9,80.163,292.742,74.9c-11.706-5.751-27.807-14.275-33.358-22.085A29.826,29.826,0,0,1,253.6,34.945c0-8.09,3.388-16.085,11.507-22.049,6.96-5.24,17.5-8.769,32.451-8.769,12.261,0,22.39,1.5,32.148,5.215,1.16,7.49,2.857,17.734,4.634,26.035ZM618.282,28.2a54.8,54.8,0,0,0-27.625-7.3c-30.889,0-51.424,22.888-51.424,52.224,0,30.668,22.645,52.231,50.458,52.231,9.6,0,22.449-2.427,29.176-6.353l1.15,18.13c-10.178,4.111-22.64,4.677-30.505,4.677-42.418,0-70.61-27.739-70.61-69.233,0-40.206,29.931-68.122,70.789-68.122,10.366,0,20.539,1.491,30.137,5.611Zm16.411,16.024h16.878V58.987h0.39c4.8-9.916,15.153-17.01,25.516-17.01a52.38,52.38,0,0,1,11.909,1.3V58.987a27.291,27.291,0,0,0-10-1.694c-16.118,0-26.66,14.964-26.66,38.89v43.376H634.693V44.219Zm140.857,91.4c-6.912,2.434-14.768,6.176-30.892,6.176-34.726,0-50.65-20.567-50.65-51.6,0-28.234,18.229-48.226,45.854-48.226,32.618,0,43.175,23.168,43.175,53.837H713.191c0,18.88,15.153,31.771,32.233,31.771,11.9,0,25.715-5.971,30.126-9.537v17.575Zm-11.7-52.9c0-14.576-8.827-26.547-24.365-26.547-17.655,0-24.951,14.214-26.292,26.547h50.657Zm40.31-31.78a63.536,63.536,0,0,1,32.232-8.963c28.01,0,39.327,13.456,39.327,39.438v39.439c0,10.852.392,15.9,0.771,18.7H859.61V127.223h-0.39C855,133.012,845.4,141.8,828.9,141.8c-21.116,0-35.884-8.982-35.884-29.732,0-23.929,26.867-31.392,45.475-31.392,7.108,0,12.094,0,19.19.359,0-16.454-6.136-24.861-24.176-24.861-10.176,0-21.109,3.751-28.4,9.73Zm53.526,43.179c-3.835,0-7.671-.369-11.513-0.369-9.781,0-33.956,1.5-33.956,18.318,0,10.1,9.972,15.518,18.223,15.518,17.844,0,27.246-10.835,27.246-25.049V94.119Zm92.876-35.7h-25.9v52.163c0,11.029,6.9,17,15.158,17a22.726,22.726,0,0,0,12.283-3.36v14.952c-4.03,1.121-9.593,2.622-15.36,2.622-18.613,0-30.121-8.6-30.121-27.668V58.422H884.55v-14.2h22.07V22.161l18.04-5.613V44.219h25.9v14.2ZM987.025,22.9H966.679V3.085h20.346V22.9Zm-19.2,21.318h18.044v95.34H967.829V44.219Zm86.731,95.34h-21.49l-35.109-95.34h19.769l26.48,77.764h0.38l27.05-77.764h18.04Zm119.94-3.936c-6.91,2.434-14.78,6.176-30.9,6.176-34.72,0-50.66-20.567-50.66-51.6,0-28.234,18.24-48.226,45.86-48.226,32.62,0,43.18,23.168,43.18,53.837h-69.84c0,18.88,15.16,31.771,32.23,31.771,11.9,0,25.71-5.971,30.13-9.537v17.575Zm-11.7-52.9c0-14.576-8.84-26.547-24.38-26.547-17.66,0-24.94,14.214-26.28,26.547h50.66Z" transform="translate(-1 -3.094)"/>
</svg>
