<svg width="92" height="67" viewBox="0 0 92 67" fill="none" xmlns="http://www.w3.org/2000/svg">
<path fill-rule="evenodd" clip-rule="evenodd" d="M10.7955 21.3158C12.7628 23.5253 19.9321 28.6848 22.9478 28.3591C23.441 34.0328 26.0035 37.0045 29.9898 38.731C31.9181 39.5657 35.1618 40.2001 37.7231 39.3825C42.3636 37.9017 44.3308 35.0831 46.1089 30.7223C46.9864 28.5723 47.3954 25.1163 46.6681 22.3407C43.8876 11.7261 33.949 3.87402 23.4676 0.920521C16.1692 -1.13526 5.20152 0.408636 0.945892 3.99948C0.412539 4.45011 0.180928 4.96965 0 5.93216C0.0123762 7.436 1.20284 8.60114 2.13047 9.20963C2.54949 9.48413 3.0021 9.52595 3.34156 9.86112C3.66099 10.3353 3.34097 11.1517 3.52838 11.9098C3.73347 12.7439 4.03875 13.6546 4.46013 14.3314C4.921 15.0707 5.76965 15.9195 6.50986 16.3801L10.7955 21.3158ZM5.70187 5.21646C6.36017 4.29578 9.38054 3.27672 10.6093 3.0629C13.3539 2.58518 16.3489 3.14418 18.2908 3.3421C27.8517 5.44737 36.3959 10.5267 41.357 17.5906C42.2451 18.8559 42.851 20.3833 43.3136 22.0609C43.5334 22.8585 43.4998 23.7197 43.5004 24.6687C43.5004 29.3115 41.2939 33.1239 38.4686 34.9128C32.188 38.8889 23.4905 32.4753 26.449 25.1346C27.2547 23.136 28.2766 21.9308 30.4554 21.3158C33.4917 20.4599 37.2634 22.9003 36.0464 25.693C35.6103 26.6932 35.2402 26.8287 34.6356 26.9277C33.309 26.8847 32.5699 25.9257 31.294 26.159C29.1152 26.5566 27.3307 28.8167 28.9649 31.094C29.7299 32.1614 32.1167 32.6892 33.903 32.119C36.0859 31.4227 37.6689 29.8223 38.3755 27.6487C38.8323 26.245 38.4368 24.4807 38.0031 23.4582C36.799 20.6242 32.696 17.7921 28.4056 19.3601C26.4325 20.0817 24.7517 21.6722 23.9337 23.5512C23.685 24.2958 23.4363 25.0415 23.1882 25.7861C22.3796 26.9129 20.6658 25.9622 19.7883 25.3979C18.1264 24.3288 14.1365 20.8693 13.6839 20.2914C14.0422 17.8333 17.8629 19.8225 19.5166 19.7177C20.8927 19.3902 21.4172 18.2733 21.4172 18.2421C15.9034 18.271 11.247 16.5292 8.00089 14.0522C7.19939 13.4408 7.41332 12.2562 7.81466 11.9098C9.40765 11.5582 13.6845 12.5307 14.2432 12.5619C17.9112 13.4037 23.9697 13.0438 26.0766 11.0722C26.1072 11.0722 26.1697 11.0098 26.1697 10.9785C25.156 11.1723 24.1736 11.2195 23.0014 11.2578C22.2258 11.2578 17.1286 10.8307 15.756 10.4967C12.3803 9.67321 9.03165 9.13953 6.60298 7.25399C5.20859 6.17072 5.56397 5.52512 5.70187 5.21646ZM31.2009 0.362101C31.2539 0.656626 31.2828 0.632475 31.3871 0.827451C32.4108 1.24214 33.8576 1.02243 35.2072 1.20032C36.5173 1.37173 38.1363 1.51075 39.4935 1.94488C40.0575 2.12513 50.4128 5.31542 53.1114 11.3355C53.907 13.1103 57.1048 18.7352 53.2835 28.6736C50.1989 36.6976 45.4235 45.749 34.9438 53.9674C32.0749 56.2176 26.1667 57.3868 21.6041 55.8665C18.5194 54.8392 16.4992 52.9372 13.1252 52.1414C11.9247 51.858 10.5946 52.3988 9.8638 52.7004C7.44927 53.6994 4.58566 56.0815 5.95058 59.8709C6.2034 60.5742 6.55936 61.4159 6.97603 62.0132C11.0926 67.9173 22.8988 64.2516 28.2194 61.9202C29.5719 61.327 30.8408 60.8151 32.0395 60.0576C43.3773 52.8995 50.1989 41.188 57.0105 29.4182C57.7318 28.1717 63.9871 15.3976 64.6513 14.3314C67.1312 10.3483 72.3646 3.04581 80.3979 1.5726C82.226 1.23684 83.8673 1.26924 85.801 1.10725C87.0238 1.00475 88.2173 1.28573 88.9693 0.641311C89.04 0.541173 89.0276 0.55531 89.063 0.362101C70.2683 0.365636 50.2832 0.379184 31.2009 0.362101Z" fill="#111111"/>
<path d="M10.7955 21.3158C12.7628 23.5253 19.9321 28.6848 22.9478 28.3591C23.441 34.0328 26.0035 37.0045 29.9898 38.731C31.9181 39.5657 35.1618 40.2001 37.7231 39.3825C42.3636 37.9017 44.3308 35.0831 46.1089 30.7223C46.9864 28.5723 47.3954 25.1163 46.6681 22.3407C43.8876 11.7261 33.949 3.87402 23.4676 0.920521C16.1692 -1.13526 5.20152 0.408636 0.945892 3.99948C0.412539 4.45011 0.180928 4.96965 0 5.93216C0.0123762 7.436 1.20284 8.60114 2.13047 9.20963C2.54949 9.48413 3.0021 9.52595 3.34156 9.86112C3.66099 10.3353 3.34097 11.1517 3.52838 11.9098C3.73347 12.7439 4.03875 13.6546 4.46013 14.3314C4.921 15.0707 5.76965 15.9195 6.50986 16.3801L10.7955 21.3158ZM5.70187 5.21646C6.36017 4.29578 9.38054 3.27672 10.6093 3.0629C13.3539 2.58518 16.3489 3.14418 18.2908 3.3421C27.8517 5.44737 36.3959 10.5267 41.357 17.5906C42.2451 18.8559 42.851 20.3833 43.3136 22.0609C43.5334 22.8585 43.4998 23.7197 43.5004 24.6687C43.5004 29.3115 41.2939 33.1239 38.4686 34.9128C32.188 38.8889 23.4905 32.4753 26.449 25.1346C27.2547 23.136 28.2766 21.9308 30.4554 21.3158C33.4917 20.4599 37.2634 22.9003 36.0464 25.693C35.6103 26.6932 35.2402 26.8287 34.6356 26.9277C33.309 26.8847 32.5699 25.9257 31.294 26.159C29.1152 26.5566 27.3307 28.8167 28.9649 31.094C29.7299 32.1614 32.1167 32.6892 33.903 32.119C36.0859 31.4227 37.6689 29.8223 38.3755 27.6487C38.8323 26.245 38.4368 24.4807 38.0031 23.4582C36.799 20.6242 32.696 17.7921 28.4056 19.3601C26.4325 20.0817 24.7517 21.6722 23.9337 23.5512C23.685 24.2958 23.4363 25.0415 23.1882 25.7861C22.3796 26.9129 20.6658 25.9622 19.7883 25.3979C18.1264 24.3288 14.1365 20.8693 13.6839 20.2914C14.0422 17.8333 17.8629 19.8225 19.5166 19.7177C20.8927 19.3902 21.4172 18.2733 21.4172 18.2421C15.9034 18.271 11.247 16.5292 8.00089 14.0522C7.19939 13.4408 7.41332 12.2562 7.81466 11.9098C9.40765 11.5582 13.6845 12.5307 14.2432 12.5619C17.9112 13.4037 23.9697 13.0438 26.0766 11.0722C26.1072 11.0722 26.1697 11.0098 26.1697 10.9785C25.156 11.1723 24.1736 11.2195 23.0014 11.2578C22.2258 11.2578 17.1286 10.8307 15.756 10.4967C12.3803 9.67321 9.03165 9.13953 6.60298 7.25399C5.20859 6.17072 5.56397 5.52512 5.70187 5.21646ZM31.2009 0.362101C31.2539 0.656626 31.2828 0.632475 31.3871 0.827451C32.4108 1.24214 33.8576 1.02243 35.2072 1.20032C36.5173 1.37173 38.1363 1.51075 39.4935 1.94488C40.0575 2.12513 50.4128 5.31542 53.1114 11.3355C53.907 13.1103 57.1048 18.7352 53.2835 28.6736C50.1989 36.6976 45.4235 45.749 34.9438 53.9674C32.0749 56.2176 26.1667 57.3868 21.6041 55.8665C18.5194 54.8392 16.4992 52.9372 13.1252 52.1414C11.9247 51.858 10.5946 52.3988 9.8638 52.7004C7.44927 53.6994 4.58566 56.0815 5.95058 59.8709C6.2034 60.5742 6.55936 61.4159 6.97603 62.0132C11.0926 67.9173 22.8988 64.2516 28.2194 61.9202C29.5719 61.327 30.8408 60.8151 32.0395 60.0576C43.3773 52.8995 50.1989 41.188 57.0105 29.4182C57.7318 28.1717 63.9871 15.3976 64.6513 14.3314C67.1312 10.3483 72.3646 3.04581 80.3979 1.5726C82.226 1.23684 83.8673 1.26924 85.801 1.10725C87.0238 1.00475 88.2173 1.28573 88.9693 0.641311C89.04 0.541173 89.0276 0.55531 89.063 0.362101C70.2683 0.365636 50.2832 0.379184 31.2009 0.362101Z" fill="#111111"/>
<path d="M82.1451 47.5007L83.6939 47.3487C85.8532 41.6626 88.266 37.7025 88.952 37.7025C89.104 37.7025 89.384 37.8291 89.384 38.159C89.384 38.6673 88.164 45.0897 88.164 46.3839C88.164 47.2221 88.6213 47.7552 89.3586 47.7552C90.222 47.7552 91.3901 47.1455 91.9994 46.537L91.9234 46.0287C91.6187 46.2066 91.1614 46.3332 90.8821 46.3332C90.5267 46.3332 90.3487 46.2319 90.3487 45.8514C90.3487 44.9878 91.7207 37.296 91.7207 36.6869C91.7207 35.9253 91.314 35.5188 90.552 35.5188C88.2913 35.5188 85.5739 40.7738 84.7865 42.7288H84.7358L85.9045 35.265L82.4498 36.3571L82.3991 36.8642C82.8051 36.7629 83.2377 36.6616 83.6939 36.5603L82.1451 47.5007ZM79.1713 37.8544C79.1713 39.8601 77.0632 41.4088 75.0818 41.8906C75.5651 38.768 76.2505 36.8389 77.6726 36.8389C78.536 36.8389 79.1713 37.144 79.1713 37.8544ZM80.314 44.0489C79.7046 44.7593 77.9272 46.3332 76.9106 46.3332C75.3105 46.3332 74.9298 44.7846 74.9298 43.5158C74.9298 43.2613 74.9551 43.008 74.9805 42.8048C77.5712 41.9672 81.2033 40.2153 81.2033 37.296C81.2033 36.0519 80.3393 35.265 79.0699 35.265C75.4119 35.265 72.7451 40.1647 72.7451 43.4139C72.7451 45.3937 73.3551 47.7552 75.6152 47.7552C77.7999 47.7552 79.3233 45.8514 80.6193 44.3534L80.314 44.0489ZM66.2535 41.1295V45.6735C66.2535 46.537 65.9488 46.9935 64.6534 47.1455V47.5007C65.6441 47.5007 66.7368 47.3487 67.4982 47.3487C68.2602 47.3487 69.3523 47.5007 70.3429 47.5007V47.1455C69.0476 46.9935 68.7429 46.537 68.7429 45.6735V41.1295L72.705 33.1579C73.3144 31.9398 73.6444 31.508 74.6104 31.4573V31.1016C73.7971 31.1016 73.1871 31.2541 72.5783 31.2541C71.765 31.2541 70.7496 31.1016 70.0889 31.1016V31.4573C70.9523 31.508 71.3083 31.6859 71.3083 32.1171C71.3083 32.3209 71.3083 32.5742 71.1303 32.9806L67.9048 39.7836L64.4501 33.0313C64.2221 32.5742 64.1454 32.295 64.1454 32.0411C64.1454 31.6352 64.5267 31.4827 65.3394 31.4573V31.1016C64.4501 31.1016 63.5873 31.2541 62.7234 31.2541C61.8346 31.2541 60.9453 31.1016 60.0312 31.1016V31.4573C60.9453 31.6099 61.2759 32.0152 61.682 32.7521L66.2535 41.1295Z" fill="#111111"/>
<path d="M84.4857 66.3369C85.2984 66.718 86.2378 66.794 86.9745 66.794C90.022 66.794 91.648 64.6357 91.648 62.4533C91.648 60.0665 86.7458 58.5438 86.7458 57.0712C86.7458 56.4362 87.2538 55.8777 88.7779 55.8777C89.7173 55.8777 90.784 56.0816 91.622 56.3349L91.9267 54.4817C91.3427 54.3804 90.7333 54.3038 90.0986 54.3038C87.8885 54.3038 85.1711 55.3447 85.1711 57.9595C85.1711 60.7268 90.0732 61.5132 90.0732 63.8488C90.0732 64.7123 89.1332 65.2195 87.7618 65.2195C86.7458 65.2195 85.6791 64.8902 84.8151 64.3825L84.4857 66.3369ZM76.7618 66.3369C77.5745 66.718 78.5145 66.794 79.2512 66.794C82.2986 66.794 83.9246 64.6357 83.9246 62.4533C83.9246 60.0665 79.0225 58.5438 79.0225 57.0712C79.0225 56.4362 79.5305 55.8777 81.0545 55.8777C81.994 55.8777 83.0607 56.0816 83.8987 56.3349L84.204 54.4817C83.6194 54.3804 83.01 54.3038 82.3747 54.3038C80.1652 54.3038 77.4478 55.3447 77.4478 57.9595C77.4478 60.7268 82.3499 61.5132 82.3499 63.8488C82.3499 64.7123 81.4099 65.2195 80.0385 65.2195C79.0225 65.2195 77.9558 64.8902 77.0924 64.3825L76.7618 66.3369ZM74.2347 56.8933C74.2347 58.899 72.1272 60.4476 70.1458 60.9294C70.6285 57.8069 71.3145 55.8777 72.7366 55.8777C73.6006 55.8777 74.2347 56.1829 74.2347 56.8933ZM75.378 63.0877C74.7686 63.7987 72.9906 65.3726 71.9746 65.3726C70.3745 65.3726 69.9938 63.824 69.9938 62.5546C69.9938 62.3002 70.0191 62.0463 70.0445 61.8436C72.6352 61.006 76.2667 59.2542 76.2667 56.3349C76.2667 55.0908 75.4034 54.3038 74.1333 54.3038C70.4759 54.3038 67.8091 59.2035 67.8091 62.4533C67.8091 64.4331 68.4185 66.794 70.6792 66.794C72.8633 66.794 74.3873 64.8902 75.6827 63.3923L75.378 63.0877ZM60.8018 66.5401L62.6565 66.3882L63.0372 64.6357C64.0786 59.9905 65.5012 56.6394 67.3801 56.6394C67.8121 56.6394 68.0914 56.6394 68.3961 56.6901L68.7014 54.3038C66.466 54.3038 65.6533 55.218 63.9006 59.686L63.8499 59.6347L64.5866 54.3038L61.1325 55.3959L61.0818 55.9031C61.4878 55.8018 61.9192 55.6999 62.3766 55.5985L60.8018 66.5401ZM48.5883 65.1182C48.5883 65.8292 48.2831 66.0324 47.293 66.1844V66.5401C47.8263 66.5401 48.8677 66.3882 49.833 66.3882C50.7978 66.3882 51.8391 66.5401 52.3725 66.5401V66.1844C51.3818 66.0324 51.0771 65.8292 51.0771 65.1182V51.5624H51.7378C55.166 51.5624 57.4267 52.0448 57.4267 55.294C57.4267 57.6802 55.598 59.0003 53.2105 59.0003H51.6865C51.4578 59.0003 51.3317 59.0763 51.3317 59.2035C51.3317 59.3308 51.4072 59.3814 51.4838 59.4574C51.9411 59.8892 53.3125 60.1177 53.9219 60.1177C57.3507 60.1177 59.7634 58.1373 59.7634 55.0401C59.7634 52.2221 58.1127 50.293 54.7599 50.293H47.293V50.6482C48.2831 50.8007 48.5883 51.004 48.5883 51.7143V65.1182Z" fill="#111111"/>
</svg>
